<svg width="64" height="64" viewBox="0 0 64 64" fill="none" xmlns="http://www.w3.org/2000/svg" role="img" aria-labelledby="title desc">
  <title id="title">BlueCore Technologies LLC logo</title>
  <desc id="desc">A blue hexagon mark with a white letter B.</desc>
  <defs>
    <linearGradient id="g" x1="9" y1="7" x2="56" y2="58" gradientUnits="userSpaceOnUse">
      <stop stop-color="#0A7BFF"/>
      <stop offset="1" stop-color="#0636B7"/>
    </linearGradient>
    <filter id="shadow" x="2" y="2" width="60" height="60" filterUnits="userSpaceOnUse" color-interpolation-filters="sRGB">
      <feDropShadow dx="0" dy="4" stdDeviation="4" flood-color="#0B5FE8" flood-opacity=".25"/>
    </filter>
  </defs>
  <path filter="url(#shadow)" d="M32 5.5 55 18.8v26.4L32 58.5 9 45.2V18.8L32 5.5Z" fill="url(#g)"/>
  <path d="M22 17.5h13.2c6.1 0 10 3.3 10 8.6 0 3.1-1.5 5.4-4.3 6.8 3.4 1.3 5.3 4 5.3 7.6 0 5.8-4.4 9.8-11.2 9.8H22V17.5Zm12.3 13c2.7 0 4.4-1.4 4.4-3.6s-1.7-3.5-4.4-3.5h-5.7v7.1h5.7Zm.9 13.7c3 0 4.8-1.5 4.8-4s-1.8-4-4.9-4h-6.5v8h6.6Z" fill="white"/>
  <path d="M20.8 14.7 15.7 17.6v29.1l5.1 2.9" stroke="#D8EAFF" stroke-width="2.4" stroke-linecap="round"/>
</svg>
